<mxfile host="app.diagrams.net" agent="Mozilla/5.0 (Windows NT 10.0; Win64; x64; rv:131.0) Gecko/20100101 Firefox/131.0" version="24.8.3">
  <diagram name="Страница — 1" id="I9osHqQ4haIZjHQ_b6Fl">
    <mxGraphModel dx="1050" dy="558" grid="1" gridSize="10" guides="1" tooltips="1" connect="1" arrows="1" fold="1" page="1" pageScale="1" pageWidth="827" pageHeight="1169" math="0" shadow="0">
      <root>
        <mxCell id="0" />
        <mxCell id="1" parent="0" />
        <mxCell id="nftqvOAK8WW3iENx4ne5-3" value="Flaber admin" style="swimlane;whiteSpace=wrap;html=1;" parent="1" vertex="1">
          <mxGeometry x="170" y="270" width="160" height="200" as="geometry" />
        </mxCell>
        <mxCell id="nftqvOAK8WW3iENx4ne5-6" value="Content search" style="text;html=1;align=center;verticalAlign=middle;resizable=0;points=[];autosize=1;strokeColor=none;fillColor=none;" parent="nftqvOAK8WW3iENx4ne5-3" vertex="1">
          <mxGeometry x="10" y="30" width="100" height="30" as="geometry" />
        </mxCell>
        <mxCell id="nftqvOAK8WW3iENx4ne5-7" value="Content posting" style="text;html=1;align=center;verticalAlign=middle;resizable=0;points=[];autosize=1;strokeColor=none;fillColor=none;" parent="nftqvOAK8WW3iENx4ne5-3" vertex="1">
          <mxGeometry x="5" y="60" width="110" height="30" as="geometry" />
        </mxCell>
        <mxCell id="nftqvOAK8WW3iENx4ne5-12" value="Content generating" style="text;html=1;align=center;verticalAlign=middle;resizable=0;points=[];autosize=1;strokeColor=none;fillColor=none;" parent="nftqvOAK8WW3iENx4ne5-3" vertex="1">
          <mxGeometry x="5" y="90" width="120" height="30" as="geometry" />
        </mxCell>
        <mxCell id="nftqvOAK8WW3iENx4ne5-4" value="Flaber member" style="swimlane;whiteSpace=wrap;html=1;" parent="1" vertex="1">
          <mxGeometry x="490" y="270" width="150" height="200" as="geometry" />
        </mxCell>
        <mxCell id="nftqvOAK8WW3iENx4ne5-8" value="Text answers" style="text;html=1;align=center;verticalAlign=middle;resizable=0;points=[];autosize=1;strokeColor=none;fillColor=none;" parent="nftqvOAK8WW3iENx4ne5-4" vertex="1">
          <mxGeometry x="10" y="30" width="90" height="30" as="geometry" />
        </mxCell>
        <mxCell id="nftqvOAK8WW3iENx4ne5-9" value="Image answers" style="text;html=1;align=center;verticalAlign=middle;resizable=0;points=[];autosize=1;strokeColor=none;fillColor=none;" parent="nftqvOAK8WW3iENx4ne5-4" vertex="1">
          <mxGeometry x="5" y="60" width="100" height="30" as="geometry" />
        </mxCell>
        <mxCell id="nftqvOAK8WW3iENx4ne5-10" value="&lt;div&gt;tts answers&lt;/div&gt;" style="text;html=1;align=center;verticalAlign=middle;resizable=0;points=[];autosize=1;strokeColor=none;fillColor=none;" parent="nftqvOAK8WW3iENx4ne5-4" vertex="1">
          <mxGeometry x="15" y="90" width="80" height="30" as="geometry" />
        </mxCell>
        <mxCell id="nftqvOAK8WW3iENx4ne5-11" value="&lt;div&gt;stt answers&lt;/div&gt;" style="text;html=1;align=center;verticalAlign=middle;resizable=0;points=[];autosize=1;strokeColor=none;fillColor=none;" parent="nftqvOAK8WW3iENx4ne5-4" vertex="1">
          <mxGeometry x="15" y="120" width="80" height="30" as="geometry" />
        </mxCell>
        <mxCell id="nftqvOAK8WW3iENx4ne5-13" value="Flaber" style="ellipse;whiteSpace=wrap;html=1;aspect=fixed;" parent="1" vertex="1">
          <mxGeometry x="370" y="150" width="80" height="80" as="geometry" />
        </mxCell>
        <mxCell id="nftqvOAK8WW3iENx4ne5-14" value="" style="endArrow=classic;html=1;rounded=0;" parent="1" source="nftqvOAK8WW3iENx4ne5-13" target="nftqvOAK8WW3iENx4ne5-4" edge="1">
          <mxGeometry width="50" height="50" relative="1" as="geometry">
            <mxPoint x="390" y="390" as="sourcePoint" />
            <mxPoint x="440" y="340" as="targetPoint" />
          </mxGeometry>
        </mxCell>
        <mxCell id="nftqvOAK8WW3iENx4ne5-15" value="" style="endArrow=classic;html=1;rounded=0;" parent="1" source="nftqvOAK8WW3iENx4ne5-13" target="nftqvOAK8WW3iENx4ne5-3" edge="1">
          <mxGeometry width="50" height="50" relative="1" as="geometry">
            <mxPoint x="360" y="230" as="sourcePoint" />
            <mxPoint x="414" y="293" as="targetPoint" />
          </mxGeometry>
        </mxCell>
      </root>
    </mxGraphModel>
  </diagram>
</mxfile>
